<?xml version="1.0" standalone="no"?>
<!DOCTYPE svg PUBLIC "-//W3C//DTD SVG 20010904//EN"
 "http://www.w3.org/TR/2001/REC-SVG-20010904/DTD/svg10.dtd">
<svg version="1.0" xmlns="http://www.w3.org/2000/svg"
 width="550.000000pt" height="550.000000pt" viewBox="0 0 550.000000 550.000000"
 preserveAspectRatio="xMidYMid meet">

<g transform="translate(0.000000,550.000000) scale(0.100000,-0.100000)"
fill="#000000" stroke="none">
<path d="M685 5483 c-351 -75 -612 -345 -674 -697 -8 -40 -11 -699 -11 -2037
0 -1677 2 -1988 14 -2051 70 -355 329 -614 684 -684 110 -21 3994 -21 4104 0
355 70 614 329 684 684 21 110 21 3994 0 4104 -57 291 -262 540 -525 639 -157
58 22 54 -2186 56 -1765 1 -2029 0 -2090 -14z m4100 -198 c240 -50 450 -260
500 -500 22 -105 22 -3965 0 -4069 -47 -224 -209 -404 -432 -483 l-78 -28
-1992 -3 c-2197 -3 -2062 -6 -2206 60 -136 62 -239 164 -308 303 -73 148 -69
0 -69 2185 0 2190 -5 2035 71 2190 82 167 259 306 439 344 100 22 3973 22
4075 1z"/>
<path d="M1383 4033 l-903 -3 0 -158 0 -157 832 3 c458 1 889 1 958 0 l124 -3
-637 -470 c-351 -258 -646 -476 -655 -483 -15 -11 -15 -14 -2 -22 8 -5 144
-102 301 -217 158 -114 448 -325 646 -468 l359 -260 -790 -6 c-435 -3 -867 -7
-961 -8 l-170 -1 3 -152 3 -153 2259 0 2260 0 0 153 0 152 -167 1 c-93 1 -524
5 -959 8 l-792 6 560 405 c308 223 605 438 660 478 l99 73 -23 18 c-13 10
-308 228 -657 485 l-634 467 962 -3 961 -3 0 158 0 157 -663 0 c-365 0 -981 2
-1368 3 -387 2 -1110 2 -1606 0z m1938 -839 c305 -224 564 -415 576 -424 22
-17 13 -23 -558 -436 -318 -230 -585 -419 -592 -418 -12 1 -1170 835 -1165
839 2 2 264 195 582 429 319 235 585 425 592 422 6 -2 261 -188 565 -412z"/>
<path d="M2567 3033 l-36 -36 84 -122 84 -122 3 -159 3 -159 45 0 45 0 3 159
3 158 79 117 c44 64 80 121 80 127 0 6 -15 25 -34 43 l-34 33 -68 -101 c-38
-55 -71 -101 -74 -101 -3 0 -34 43 -70 96 -36 53 -68 97 -71 99 -3 2 -22 -12
-42 -32z"/>
</g>
</svg>
